<svg xmlns="http://www.w3.org/2000/svg" viewBox="0 0 1440 320"><path fill="#0D1321" fill-opacity="1" d="M0,96L21.8,106.7C43.6,117,87,139,131,144C174.5,149,218,139,262,122.7C305.5,107,349,85,393,106.7C436.4,128,480,192,524,192C567.3,192,611,128,655,106.7C698.2,85,742,107,785,117.3C829.1,128,873,128,916,133.3C960,139,1004,149,1047,170.7C1090.9,192,1135,224,1178,208C1221.8,192,1265,128,1309,128C1352.7,128,1396,192,1418,224L1440,256L1440,0L1418.2,0C1396.4,0,1353,0,1309,0C1265.5,0,1222,0,1178,0C1134.5,0,1091,0,1047,0C1003.6,0,960,0,916,0C872.7,0,829,0,785,0C741.8,0,698,0,655,0C610.9,0,567,0,524,0C480,0,436,0,393,0C349.1,0,305,0,262,0C218.2,0,175,0,131,0C87.3,0,44,0,22,0L0,0Z"></path></svg>